# xmcd CD database file
#
# Track frame offsets:
#	150
#	17916
#	32816
#	50084
#	76347
#	88466
#	113429
#	124369
#
# Disc length: 1853 seconds
#
# Revision: 1
# Processed by: cddbd v1.5.2PL0 Copyright (c) Steve Scherf et al.
# Submitted via: CDex 1.70beta2
#
DISCID=68073b08
DTITLE=Sergio Rocha - Parece Que O Tempo Não Passou
DYEAR=2009
DGENRE=Blues
TTITLE0=Perto de você
TTITLE1=Vida de cão
TTITLE2=Shuffle pro Eric, Carol e Andrei
TTITLE3=Seu olhar neon
TTITLE4=Parece que o tempo não passou
TTITLE5=Céu cinzento
TTITLE6=A Rocha
TTITLE7=Voltar a te ver
EXTD=YEAR: 2009
EXTT0=
EXTT1=
EXTT2=
EXTT3=
EXTT4=
EXTT5=
EXTT6=
EXTT7=
PLAYORDER=
